<svg xmlns="http://www.w3.org/2000/svg" viewBox="0 0 900 420" role="img" aria-label="Natural Earth 110m world land map">
  <title>World land map</title>
  <desc>World land polygons from Natural Earth 110m land data, projected to an equirectangular 900 by 420 viewBox.</desc>
  <g fill="#ffffff" stroke="#111827" stroke-width="0.45" stroke-linejoin="round">
    <path d="M301.1 396.8L300.3 397.9L299.6 399L294.4 398.7L288.8 398.8L285.6 398L285.6 397.9L284.3 397.3L289.9 397.4L295.3 397.6L297.2 396.6L298.5 395.8L301.1 396.8Z"/>
    <path d="M52 395.5L47.2 395.8L43.9 395L42.4 394.2L42.3 394L40.7 393.4L40.7 393.4L42.2 392.5L46.9 392.9L49.4 393.6L51.3 394.4L52 395.5Z"/>
    <path d="M337.1 392.1L340.2 393.1L341.3 394.5L341.6 395.5L341.7 396.7L337.8 397.5L333.7 398.1L329 398.6L323.8 399.1L317.9 398.9L314.6 398.1L315 397.2L320.4 396.5L322.5 395.8L324.1 394.8L325.2 393.9L326.7 393.1L328.3 392.1L328.3 392.1L329.6 392.1L333.3 391.6L337.1 392.1Z"/>
    <path d="M147 381.5L150.2 381.9L153.2 381.5L151.8 382.3L149.4 382.9L145.9 382.7L143.4 381.9L143.4 381.9L144 381.1L147 381.5Z"/>
    <path d="M136.1 381.5L139.9 382.4L138.5 382.3L135.2 382.1L131.8 381.4L131.8 381.4L133.6 380.9L136.1 381.5Z"/>
    <path d="M202.5 377.8L205.3 378.2L208 377.9L209.5 379.2L207.5 379L204.5 379.1L201.4 379L198 379.2L195.5 378.7L194.2 377.8L194.2 377.8L195.7 377.3L198.9 377.7L202.5 377.8Z"/>
    <path d="M278.9 375.6L279.2 376.6L278.7 377.5L278 378.4L275.1 378.7L272.3 379.2L269 379.1L270.3 378.2L267.3 378.5L264.5 378.9L262.6 378.2L262.5 377.2L265.2 376.3L265.2 376.3L266.9 376L269.8 376.1L270.5 374.9L270.7 374.1L270.6 372.2L272.1 371.1L274.4 370.7L275.7 371.6L276.3 372.5L277.4 373.5L278.2 374.5L278.9 375.6Z"/>
    <path d="M303.5 359.7L302.4 360.2L300.5 359.8L298.5 360.1L296.8 360.6L294.9 361.2L293.7 361.9L293.4 362.8L293.5 363.7L294.7 364.4L293 365L290.6 365.2L289.3 366L287.8 366.7L286.2 367.7L285.8 368.6L286.7 369.5L288 370.3L290.1 370.8L292 371.5L293 372.4L293.6 373.3L294.3 374.2L295.5 375L296.2 375.9L296.6 378L297.3 378.9L297.5 379.8L298.3 380.7L297.9 382L296.6 382.9L295.1 383.7L291.8 384L290.6 384.8L289.1 385.6L285.3 386.5L282 386.8L278.9 387.4L275.5 387.9L273.5 388.8L269.5 388.9L265.1 388.8L261.1 389L256.9 389L257.7 389.9L261.5 390.3L264.3 391L265.9 391.8L263.1 392.5L258.8 392.3L255.2 392.9L255 393.8L254.9 394.8L257.9 395.5L258.4 396.4L261.6 397.3L266.9 397.6L271.4 398.3L275 399L279.5 399.7L285.7 400.1L291.9 400.7L296.1 401.4L300.8 402.2L303.2 403.3L304.4 404.2L307.5 403.4L311.6 402.7L316 401.9L321.1 401.3L325.6 400.7L331.8 400.7L337.9 401L343 401.5L344.6 400.5L348.1 399.8L354.4 399.8L359.3 399.3L364 398.8L369.2 398.5L374.8 398L378.6 397.5L376.9 396.6L375.8 395.8L375.8 394.9L370.9 395L365.8 395.4L360.9 395.4L360.2 394.5L360.6 392.8L361.7 392.3L365.3 391.7L369.5 391.2L372.5 390.5L375.5 389.8L377.8 388.9L381.2 388.5L384.6 388.2L386.3 388L390.2 387.9L393.9 387.6L396.9 387.1L400 386.6L402.7 386L406.2 385.3L408.4 384.5L410.7 383.8L411.5 382.9L408.8 382.4L409.7 381.4L411.4 380.7L414 380.2L416.7 379.7L419.3 378.9L421.2 378L422.4 376.9L424.3 376.3L427.2 376.4L428.5 377.2L431.5 377.3L431.6 376.4L432.8 375.5L435.5 375.7L436.2 376.6L439.1 376.7L442.4 376.3L445.5 376.1L448.4 376.2L449.4 377.2L452.2 376.4L454.7 376L457.6 375.6L460.3 375.3L462.9 374.8L465.7 374.4L467.8 373.9L469.4 373.1L471.2 373.7L473.8 373.4L475.6 374.5L477 375.3L479.9 374.8L481 373.9L483.6 373.3L486.8 373.4L487.8 374.3L489.9 373.4L492.6 373.1L495.5 373L498.1 373.1L500.9 373.4L503.6 373.5L504.8 374.3L506.4 375L509.2 374.5L512.1 374.5L514.9 374.5L517.7 374.4L520.2 374.1L522.9 373.8L525.1 373.2L527.4 372.8L530 372.5L531.9 371.9L533.3 370.6L534.7 369.8L537.3 370.2L538.3 371L540.4 371.6L543 371.4L544.8 372.2L546.6 372.8L549.2 372.3L550.1 371.3L552.3 370.8L554.9 370.1L557.3 369.7L560.3 369.3L562.2 368.8L564.3 368.2L566.3 367.7L568.6 368L570.9 367.2L572.5 366.5L574.8 366.6L576.9 366L577.4 365.2L579.5 364.6L581.5 364.1L584 363.8L586.3 363.6L588.5 363.7L590.9 363.9L592.9 364.6L593.1 365.6L595.3 366.4L596.9 367L599.8 367.3L601.5 367.9L603.6 368.6L606 368.7L608 368.2L610.1 367.3L612.5 367.8L614.9 368.1L617.3 368.3L619.7 368.5L622.2 368.5L624.3 370.9L624.2 371.5L623.9 372.6L621.5 373.2L619.5 374L619.9 375L622.7 374.9L622.3 375.8L621 376.7L619.9 377.7L621.8 378.4L624.7 378.6L627.6 378.2L628.9 377.3L629.8 376.4L631.1 375.7L632.7 375L633.3 374.2L634.7 373L636.2 372.8L639.1 372.7L641.6 372.4L644.1 372.1L645.3 371.2L646.1 370.3L647.8 369.4L650.2 368.8L652.3 368.4L653.7 367.6L655.1 367.2L656.9 366.8L659.4 367.1L661.7 366.8L664.1 366.5L666.9 366.7L668.7 366L670 364.5L670.9 365.1L672.1 366.2L674.2 366.7L676.6 366.9L679 366.6L681.5 366.8L683.9 366.8L685.4 366.6L687.5 366.7L689.5 367.2L691.7 366.9L694.4 366.9L696.7 366.6L699.3 366.9L701 366.1L702.2 365.4L703.9 364.7L707.1 363L708.7 363.3L710.6 363.9L712.3 364.8L715.5 366.2L717.9 366.2L720.2 366.2L722.9 366L725.6 365.6L727.6 365L729.4 364.3L732.2 364.2L734 363.7L736 364.2L737.2 364.9L739 365.6L741.7 365.5L743.5 366.1L746.4 366.7L749.6 367L752.2 366.8L754.1 366L755.8 365.3L758.1 365.1L760.3 365.5L762.9 365.7L765.3 365.3L767.5 365.3L769.7 365.5L772 365.8L774.3 365.4L777 365L779.5 364.9L782.3 364.9L784.6 364.7L786.9 364.5L787.6 363.3L787.7 362.4L789.2 363L789.7 364.1L790.5 365L791.5 365.8L793.7 366.2L796.5 366.1L799.8 366L802 365.9L805.3 365.9L807.7 365.9L810.9 366L813.7 366.1L815.5 366.9L815 367.7L816.6 368.4L819.3 369L822.1 369.6L825.3 370L828.7 370.3L831.3 370.7L834.1 370.8L835.7 370L837.9 370.6L839.8 371.3L842 371.9L845.1 372.1L848 372.4L849.2 373.3L852 373.9L853.9 374.7L856.7 375.1L859.6 375L862.3 375.1L865.3 375.1L868.3 375.3L871.1 375.6L873.7 376.1L876.3 376.6L878 377.3L877.7 378.2L876.4 379L875.3 380.1L874.4 380.9L873.2 381.9L869.9 382.2L868.5 383.1L865.2 383.6L864.1 384.5L862.4 385.3L860.6 386.1L859.6 387L858.9 387.9L858.7 389L858.7 389.8L860.1 390.7L860.7 391.6L861.9 392.4L866.5 392.7L867.5 393.8L863 394.1L859.2 394.6L854.4 394.7L852.3 396L851.9 397.1L850.8 398L849.5 398.9L852.8 399.6L854.1 400.6L856.2 401.5L859.3 402.3L862.7 403L866.5 403.7L872.2 404.5L873.5 405.6L880.7 406.1L881.2 406.3L883.1 407L890 406.4L895.7 407.1L900 407.7L900 420L0 420L0 407.7L0.1 407.7L2.4 406.3L6.9 407.1L7.1 407L7.8 406.8L8.7 406.5L9.4 406.3L9.8 406.2L10.2 406.2L10.4 406.3L14 407.2L17.2 406.3L17.8 406.1L25.1 405.7L27.5 406.3L28.7 406.6L32.4 407.3L39.5 407.9L45.2 408.7L54.8 409.2L62 408.6L72.6 409L78.7 409.8L85.3 409.1L92.2 408.4L92.8 407.3L82.9 407.2L74.8 406.7L72.7 405.8L66 405.3L66.5 404.2L67.4 403.3L68.3 402.4L67.8 401.4L63.7 400.8L61.8 400L57.9 399.2L64 399.4L69.8 399L73.4 399.8L77.8 399.1L81.9 398.2L84 397.5L83.1 396.5L79.8 395.9L76.2 395.2L71 395L66.5 394.7L61.7 394.5L60.1 393.6L56.8 392.9L54.9 392.1L54.1 389.4L55.3 389.6L57.6 390.4L61.7 390.1L65.6 389.8L67.7 390.8L71.7 390.6L75 390.1L78.1 389.5L81 388.7L84.7 388.4L84.6 387.6L83.8 386.7L84.5 385.9L87.7 385.5L89.2 386.3L93 385.8L95.9 385.2L99.5 385.2L102.9 384.9L106.2 384.4L108.9 383.9L112 383.4L113.9 383.5L115.6 383.7L119.4 383.4L122.7 383.8L126.1 383.7L129.4 383.4L132.8 383.6L136.5 383.9L140 383.8L143.6 383.8L147.3 383.9L150.7 383.8L153.3 383.1L156.3 382.7L159.5 383.2L162.4 382.8L165.1 382L166.8 382.7L167.6 383.6L169.3 384.3L171.8 383.6L174.8 384.5L178.2 384.8L181.1 385.4L184.6 385.3L187.8 384.9L191.6 385L195 385.3L198.4 385.7L199.7 384.7L198.1 383.9L196.9 383.1L193.6 382.9L192.2 382L191.7 381.2L190.8 379.4L192.7 379.8L196 379.9L199.2 379.8L202.2 380.1L204.7 380.8L205.8 381.6L209.2 381.8L212.4 381.5L215.8 381L218.9 380.7L221.4 381.3L224.8 381.1L226.9 379.3L228.9 380.4L231.8 380.8L235 380.5L237 381.5L240.3 381.5L243.3 381.8L246.3 382.3L248.3 381.5L249.3 380.6L251.8 381.5L255.2 381.3L257.7 381.8L259.4 382.6L262.8 382.4L265.4 381.9L267.9 381.3L271 380.9L274.5 380.7L277.7 380.4L280.1 379.9L281.6 379.1L282.2 378.1L281.9 377.2L281.1 376.2L280.2 375.3L279.4 374.4L278.8 373.6L278.6 372.7L278.9 371.8L280.1 370.9L281 369.9L281.4 369L280.9 368L280.6 367.1L281.9 366L283.2 365.4L284.9 364.5L286.6 363.8L288.6 363.1L289.6 362.1L290.9 361.4L292.5 360.8L294.9 360.7L296.5 360L298.2 359.5L300.3 359.2L302.1 358.6L303.5 357.9L305.5 357.6L306.9 358.2L306 359L303.5 359.7Z"/>
    <path d="M280.6 335.6L283.9 337.1L287.4 337.6L286.3 338.8L283.9 338.9L282.6 338.1L281.8 339L279.6 339.8L276.9 339.5L275.1 338.8L272.5 338.5L269.3 337.2L266.8 335.9L263.3 333.3L265.4 333.8L268.9 335.3L272.2 336.2L273.5 335.1L274.3 333.5L276.6 332.5L278.4 332.8L278.4 332.8L279.4 333.9L280.6 335.6Z"/>
    <path d="M303.6 329.2L305.6 330.3L304.9 331.1L301.5 331.8L300.4 331L298.3 332L297 331L300 329.6L302.1 330.2L303.6 329.2Z"/>
    <path d="M625.7 326L621.9 326.1L621.8 324.9L622.2 323.9L622.3 323.5L624 324.2L626.3 324.5L626.4 324.9L625.7 326Z"/>
    <path d="M813.5 305.2L815.9 306L817.3 305.7L819.2 305.2L820.7 305.4L820.9 308.1L820 308.9L819.8 310.8L818.9 310.2L817.2 311.8L816.7 311.7L815.1 311.6L813.6 309.6L813.2 308.1L811.8 306L811.9 305L813.5 305.2Z"/>
    <path d="M882.6 305.5L883.1 306.4L884.9 305.5L885.6 306.5L885.6 307.5L884.7 308.5L883.1 310.3L881.8 311.2L882.7 312.3L880.8 312.4L878.6 313.2L878 314.8L876.5 317.1L874.6 318.2L873.3 318.8L871 318.8L869.4 318L866.7 317.8L866.3 317L867.6 315.3L870.8 313L872.4 312.5L874.2 311.6L876.3 310.4L877.8 309.2L878.9 307.5L879.9 306.9L880.2 305.6L882 304.5L882.6 305.5Z"/>
    <path d="M886.5 294.4L888.3 296.8L888.4 295.2L889.5 295.9L889.9 297.6L891.9 298.4L893.6 298.6L895 297.7L896.3 298L895.7 300L894.9 301.4L893 301.3L892.3 302L892.6 303.1L892.2 303.5L891.3 304.7L890 306.3L888.1 307.3L887.7 306.7L886.6 306.3L888.1 304.4L887.3 303.1L884.6 302.2L884.6 301.3L886.4 300.5L886.9 298.7L886.7 297.2L885.7 295.7L885.8 295.2L884.6 294.3L882.6 292.2L881.6 290.6L882.5 290.4L883.9 291.7L885.8 292.3L886.5 294.4Z"/>
    <path d="M867.8 261.7L866.9 262.3L865.5 261.6L863.7 260.6L862.1 259.3L860.4 257.7L860.1 256.9L861.1 256.9L862.6 257.7L863.7 258.5L864.4 259.2L866.5 260.6L867.8 261.7Z"/>
    <path d="M895.9 250.5L896.8 251.1L896.4 252.4L894.8 252.7L893.5 252.4L893.2 251.4L894.2 250.6L895.3 250.8L895.9 250.5Z"/>
    <path d="M898.4 249.2L896.8 249.7L896.5 248.8L897.7 248.3L898.5 248.2L900 247.5L900 248.6L898.4 249.2Z"/>
    <path d="M0.2 248.5L0 248.6L0 247.5L0.5 247.4L0.2 248.5Z"/>
    <path d="M869.6 248.4L868.8 248.7L868 247.7L868 247.1L869.6 248.4Z"/>
    <path d="M867.8 244.8L868.2 246.7L867.5 246.4L867 246.6L866.6 245.9L866.6 244.1L867.8 244.8Z"/>
    <path d="M575.1 241.6L575.5 244.4L576.2 245.5L575.9 246.6L575.5 247.3L574.7 246L574.2 246.7L574.7 248.4L574.4 249.4L573.7 249.9L573.6 251.9L572.6 254.6L571.4 257.8L569.8 262.2L568.9 265.5L567.7 268.2L565.7 268.7L563.5 269.7L562.1 269.1L560.1 268.3L559.4 267.1L559.2 265L558.4 263.1L558.1 261.5L558.6 259.8L559.7 259.4L559.7 258.6L560.9 256.8L561.2 255.3L560.6 254.2L560.1 252.8L559.9 250.6L560.8 249.3L561.1 247.8L562.4 247.8L563.8 247.3L564.7 246.9L565.8 246.8L567.2 245.5L569.3 244.1L570 242.9L569.7 241.9L570.7 242.2L572.1 240.5L572.2 239.1L573 238.1L573.9 239.1L574.5 240.1L575.1 241.6Z"/>
    <path d="M808.9 242.1L809.8 243.9L811.4 243.1L812.2 244.1L813.4 245L813.2 246L813.7 248L814.1 249.2L814.7 249.4L815.4 251.4L815.2 252.7L816 254.2L818.7 255.5L820.4 256.6L822.1 257.6L821.8 258.1L823.2 259.6L824.2 262.1L825.2 261.6L826.2 262.6L826.8 262.3L827.2 264.7L829 266.2L830.2 267.1L832.1 269L832.8 270.8L832.9 272.2L832.7 273.6L833.9 275.6L833.8 277.7L833.3 278.7L832.7 280.8L832.7 282.2L832.2 283.8L831.1 286L829.3 287.1L828.4 288.9L827.5 290.1L826.8 292.1L825.8 293.2L825.2 295L824.9 296.6L825 297.3L823.6 298.1L820.8 298.2L818.5 299.2L817.3 300.1L815.8 301.1L813.7 300.1L812.2 299.6L812.6 298.4L811.2 298.9L809 300.6L806.9 299.9L805.4 299.6L804 299.4L801.6 298.7L800 297.3L799.5 295.5L798.9 294.3L797.7 293.4L795.3 293.1L796.1 292L795.5 290.2L794.3 291.8L792.1 292.3L793.4 291L793.8 289.6L794.7 288.5L794.5 286.8L792.5 288.8L790.9 289.6L790 291.4L788 290.5L788.1 289.2L786.5 287.5L785.2 286.6L785.7 286.1L782.5 284.7L780.7 284.6L778.3 283.5L773.8 283.7L770.6 284.5L767.8 285.3L765.4 285.2L762.7 286.4L760.6 286.9L760.1 288.1L759.1 289.1L757 289.1L755.5 289.3L753.2 288.9L751.5 289.2L749.7 289.3L748.2 290.5L747.5 290.4L746.3 291.1L745.1 291.8L743.2 291.7L741.6 291.7L738.9 290.2L737.6 289.8L737.6 288.5L738.9 288.1L739.3 287.6L739.2 286.8L739.5 285.1L739.2 283.8L737.9 281.4L737.5 280.1L737.6 278.7L736.6 277.2L736.5 276.5L735.4 275.6L735.1 273.8L733.7 271.9L733.3 270.9L734.4 271.9L733.6 269.8L734.8 270.5L735.6 271.4L735.5 270.2L734.3 268.3L734.1 267.6L733.5 266.9L733.8 265.5L734.3 265L734.6 263.8L734.3 262.4L735.4 260.8L735.6 262.5L736.6 260.9L738.7 260.2L739.9 259.2L741.8 258.3L742.9 258.1L743.6 258.4L745.6 257.5L747.1 257.3L747.5 256.8L748.1 256.6L749.5 256.6L752.1 255.9L753.5 254.9L754.1 253.6L755.6 252.5L755.7 251.5L755.8 250.3L757.5 248.3L758.6 250.3L759.6 249.8L758.8 248.7L759.5 247.6L760.6 248.1L760.9 246.3L762.3 245.2L762.9 244.3L764.2 243.9L764.2 243.2L765.3 243.5L765.4 242.9L766.5 242.6L767.7 242.2L769.5 243.3L770.9 244.7L772.5 244.7L774.1 244.9L773.5 243.6L774.7 241.8L775.8 241.2L775.5 240.6L776.5 239.3L778.1 238.4L779.3 238.7L781.4 238.3L781.4 237.1L779.6 236.3L780.9 236L782.5 236.5L783.9 237.5L786 238.1L786.7 237.9L788.2 238.6L789.7 237.9L790.6 238.1L791.2 237.7L792.4 238.8L791.7 240.1L790.8 241L789.9 241.1L790.2 242L789.5 243.2L788.6 244.3L788.8 245L790.7 246.3L792.7 247L794 247.8L795.8 249.2L796.5 249.2L797.8 249.8L798.2 250.5L800.5 251.3L802.2 250.5L802.7 249.3L803.2 248.2L803.5 247L804.3 245.1L803.9 244L804.1 243.3L803.8 242L804.1 240.2L804.6 239.7L804.2 239L804.8 237.7L805.3 236.4L805.4 235.8L806.3 234.9L807 236L807.2 237.5L807.8 237.8L807.9 238.8L808.8 239.9L809 241.3L808.9 242.1Z"/>
    <path d="M855.3 234.5L856 235.3L854.3 235.2L853.3 233.8L854.8 234.4L855.3 234.5Z"/>
    <path d="M751.8 233.9L750.7 233.9L747.4 232.3L749.8 231.8L751.1 232.6L751.9 233.3L751.8 233.9Z"/>
    <path d="M852.1 233L851.2 233.1L849.6 232.9L849.1 232.5L849.3 231.6L850.9 231.9L851.7 232.4L852.1 233Z"/>
    <path d="M854.2 232.4L853.8 232.8L852 230.8L851.4 229.4L852.3 229.4L853.2 231.3L854.2 232.4Z"/>
    <path d="M761.1 233.7L758.9 234.2L758.6 233.9L758.9 233.1L760 231.7L762.4 230.7L762.7 230.2L764.9 229.7L766.6 229.6L767.4 229.3L768.3 229.6L767.4 230.2L764.8 231.2L762.7 231.9L761.1 233.7Z"/>
    <path d="M744.8 228.9L745.7 229.5L747.2 229.3L747.8 230.3L744.9 230.8L743.2 231.1L741.9 231.1L742.7 229.7L744.1 229.7L744.8 228.9Z"/>
    <path d="M757.3 228.9L756.9 230.2L753.1 230.8L749.8 230.6L749.8 229.7L751.8 229.2L753.4 229.9L755 229.7L757.3 228.9Z"/>
    <path d="M849.7 229.5L849.8 229.9L847.8 228.9L846.5 228.1L845.5 227.3L845.9 227.1L847.1 227.6L849.1 228.7L849.7 229.5Z"/>
    <path d="M843.8 227.1L843.3 227.3L842.3 226.7L841.2 225.8L841.4 225.4L842.9 226.4L843.8 227.1Z"/>
    <path d="M721.6 225.8L726.3 226L726.9 225.1L731.5 226.2L732.4 227.7L736.2 228.1L739.3 229.5L736.4 230.4L733.7 229.5L731.4 229.5L728.8 229.4L726.5 229L723.6 228.1L721.7 227.8L720.7 228.1L716.1 227.2L715.7 226.2L713.4 226L715.1 223.8L718.2 223.9L720.2 224.8L721.2 225L721.6 225.8Z"/>
    <path d="M786.8 224.5L785.5 226.1L785.3 224.3L785.7 223.5L786.2 222.7L786.8 223.4L786.8 224.5Z"/>
    <path d="M839.7 225.9L839 226.1L837.9 225.3L836.8 223.8L836.3 222L836.6 221.8L836.9 222.5L837.7 223L838.9 224.5L840 225.3L839.7 225.9Z"/>
    <path d="M830 222.8L828.6 223L828.3 223.6L826.9 224.2L825.6 224.7L824.3 224.7L822.2 224.1L820.8 223.4L821 222.7L823.2 223L824.6 222.8L825 221.7L825.3 221.7L825.6 222.9L827 222.7L827.7 221.9L829.1 221.1L828.8 219.7L830.3 219.7L830.8 220.1L830.8 221.4L830 222.8Z"/>
    <path d="M768.1 218.1L767.2 218.8L765.5 218.4L765 217.4L767.5 217.3L768.1 218.1Z"/>
    <path d="M776.2 217.2L777.1 219L775 218L772.9 217.8L771.5 218L769.7 217.9L770.3 216.6L773.4 216.5L776.2 217.2Z"/>
    <path d="M832.9 220.5L832.1 221.1L831.6 219.7L831 218.8L829.9 218.1L828.5 217.1L826.7 216.4L827.3 215.8L828.7 216.5L829.6 217L830.6 217.6L831.6 218.5L832.5 219.3L832.9 220.5Z"/>
    <path d="M785.4 212.7L786.1 216.5L788.6 217.9L790.7 215.4L793.6 214L795.8 214L798 214.8L799.8 215.6L802.5 216.1L806.8 217.7L811.5 219L813.2 220.2L814.6 221.4L815 222.8L819.1 224.2L819.7 225.4L817.4 225.7L818 227.2L820.2 228.8L821.8 231.2L823.3 231.2L823.2 232.2L825.1 232.6L824.3 233L827 234L826.7 234.7L825.1 234.9L824.5 234.3L822.3 234L819.8 233.6L817.8 232.1L816.4 230.9L815.1 228.8L811.9 227.8L809.7 228.5L808.2 229.2L808.5 231L806.6 231.8L805.2 231.4L802.6 231.3L800.4 229.4L797.8 228.9L797.2 229.6L794 229.6L795.1 227.7L796.7 227.1L796 224.5L794.8 222.6L790 220.6L787.9 220.4L784.2 218.3L783.4 219.4L782.5 219.6L781.9 218.7L781.9 217.7L780 216.6L782.7 215.7L784.5 215.8L784.2 215.2L780.6 215.2L779.6 213.8L777.4 213.3L776.3 212.2L779.7 211.6L781 210.9L785 211.8L785.4 212.7Z"/>
    <path d="M763.1 206.7L761.1 209L759.2 209.5L756.8 209L752.6 209.1L750.5 209.4L750.1 211.2L752.3 213.3L753.7 212.2L758.4 211.4L758.1 212.5L757.1 212.2L756 213.5L753.8 214.4L756.1 217.4L755.7 218.2L757.9 220.9L757.9 222.5L756.6 223.1L755.6 222.3L756.8 220.4L754.3 221.3L753.7 220.7L754 219.8L752.2 218.4L752.4 216.1L750.8 216.8L751 219.6L751.1 222.9L749.5 223.2L748.4 222.6L749.1 220.4L748.7 218.2L747.7 218.1L746.9 216.5L748 215L748.3 213.2L749.6 209.6L750.1 208.7L752.2 206.9L754.2 207.6L757.3 208L760.2 207.9L762.7 206.2L763.1 206.7Z"/>
    <path d="M771.7 207.4L771.6 209.4L770.3 209.2L769.9 210.6L770.9 211.8L770.3 212.1L769.2 210.6L768.5 207.6L769 205.8L769.8 204.9L770 206.2L771.5 206.4L771.7 207.4Z"/>
    <path d="M714.5 223.7L711.8 223.7L709.7 221.8L706.5 219.8L705.4 218.4L703.5 216.5L702.3 214.8L700.4 211.5L698.2 209.6L697.4 207.6L696.5 205.7L694.2 204.3L692.9 202.3L691.1 201L688.5 198.4L688.2 197.2L689.8 197.3L693.7 197.8L695.9 200L697.9 201.6L699.2 202.6L701.6 205.1L704.1 205.1L706.2 206.7L707.7 208.7L709.6 209.8L708.6 211.7L710 212.5L710.9 212.5L711.3 214.2L712.2 215.5L714.1 215.7L715.3 217.1L714.6 220L714.5 223.7Z"/>
    <path d="M744.7 205.7L747.5 207.9L744.5 208.2L743.7 209.8L743.8 211.9L741.4 213.5L741.3 215.8L740.4 219.4L740 218.5L737.2 219.6L736.2 218.2L734.4 218L733.1 217.3L730.2 218.1L729.3 217L727.6 217.1L725.6 216.8L725.2 213.7L723.9 213.1L722.7 211.1L722.4 209L722.7 206.9L724.2 205.3L726 206.1L727.9 205.7L728.4 203.7L729.5 203.3L732.5 202.8L734.3 200.9L735.5 199.4L736.5 198.6L738.6 197.3L740.6 195.7L741.8 193.8L742.8 193.8L744.1 195L744.2 196L745.9 196.7L748 197.4L747.8 198.3L746.1 198.4L746.5 199.6L744.7 200.3L743.3 202.5L745.1 204.7L744.7 205.7Z"/>
    <path d="M765.9 190.4L766.2 191.9L766.3 193.2L765.5 195.4L764.6 193L763.4 194.2L764.2 195.9L763.5 197L760.5 195.6L759.8 193.9L760.6 192.8L759 191.7L758.2 192.7L757.1 192.6L755.2 193.9L754.8 193.2L755.8 191.3L757.4 190.6L758.7 189.7L759.6 190.8L761.5 190.1L761.9 189.1L763.7 189L763.5 187.2L765.6 188.3L765.8 189.5L765.9 190.4Z"/>
    <path d="M653 195.5L650.9 196.1L649.7 194.2L649.2 190.9L650.4 187.1L652.1 188.4L653.3 190L654.5 192.4L654.1 194.9L653 195.5Z"/>
    <path d="M297.7 186.4L295.6 186.7L295.1 186.5L295.9 185.8L295.8 184.9L297.2 184.6L297.8 184.7L297.7 186.4Z"/>
    <path d="M760 186L759.1 186.8L758.3 188.3L757.5 188.9L756 187.3L756.5 186.7L757.1 186.1L757.4 184.6L758.7 184.5L758.3 186L760.2 183.8L760 186Z"/>
    <path d="M746.3 188.3L742.9 190.5L744.2 188.8L746 187.4L747.5 185.8L748.8 183.5L749.2 185.4L747.6 186.7L746.3 188.3Z"/>
    <path d="M754.7 182.3L756.2 183L757.8 183L757.8 183.9L756.6 184.9L755 185.6L754.9 184.6L755.1 183.4L754.7 182.3Z"/>
    <path d="M763.8 181.6L764.5 184.2L762.5 183.6L762.6 184.4L763.2 185.8L762 186.4L761.9 184.7L761.1 184.6L760.8 183.2L762.2 183.4L762.2 182.5L760.7 180.7L763.1 180.7L763.8 181.6Z"/>
    <path d="M753.8 179.5L753.2 181.5L752.1 180.4L750.8 178.6L753 178.7L753.8 179.5Z"/>
    <path d="M753.3 166.8L754.8 167.5L755.6 166.9L755.8 167.5L755.4 168.4L756.3 170.1L755.6 172.1L754.2 172.8L753.8 174.7L754.3 176.6L755.6 176.8L756.8 176.5L759.9 177.8L759.6 179.1L760.5 179.7L760.2 180.7L758.2 179.6L757.3 178.4L756.7 179.2L755.1 177.8L752.8 178.2L751.6 177.7L751.7 176.7L752.5 176.1L751.7 175.6L751.4 176.4L750.2 175.1L749.8 174.1L749.7 171.8L750.7 172.6L751 168.9L751.8 166.8L753.3 166.8Z"/>
    <path d="M286 167.5L285.4 168.1L283.5 168L282 168.1L281.9 167.1L282.2 166.8L284.3 166.8L285.6 167L286 167.5Z"/>
    <path d="M257.7 168.3L257 168.7L255.6 168.3L254.2 167.5L254.5 166.9L255.5 166.8L256.1 166.9L257.8 167.1L259.1 167.6L259.5 168.3L257.7 168.3Z"/>
    <path d="M268.6 163.6L270.7 164L271 163.6L273 163.6L274.5 164.2L275.1 164.2L275.6 165L276.9 164.9L276.9 165.6L278 165.7L279.2 166.6L278.3 167.5L277.1 167L275.9 167.1L275.1 167L274.7 167.4L273.7 167.6L273.3 167L272.5 167.3L271.5 168.9L270.9 168.6L270.7 167.9L269.1 167.5L267.9 167.7L266.4 167.5L265.2 167.9L263.9 167.2L264.1 166.4L266.4 166.8L268.3 167L269.2 166.4L268 165.4L268 164.5L266.5 164.2L267 163.5L268.6 163.6Z"/>
    <path d="M725.8 166.4L723.7 167.5L721.6 166.8L721.6 164.8L722.8 163.8L725.5 163.1L727 163.2L727.5 164L726.4 165.1L725.8 166.4Z"/>
    <path d="M61.1 165.5L60.8 165.9L60.2 165.5L60.2 164.9L59.8 164L59.9 163.8L60.4 163.4L60.2 162.9L60.3 162.7L60.5 162.8L61.5 163.1L61.9 163.3L62.3 163.7L63 164.5L62.9 164.6L61.9 165.1L61.1 165.5Z"/>
    <path d="M59.8 161.8L59 162L58.5 161.5L58.2 161.3L58.2 161.2L58.5 161L59.4 161.2L60 161.6L59.8 161.8Z"/>
    <path d="M58.1 160.6L58 160.8L56.7 160.8L56.9 160.5L58.1 160.6Z"/>
    <path d="M55.9 160.2L55.7 160.4L55.6 160.4L54.7 160.3L54.4 159.7L54.3 159.6L54.9 159.3L55.1 159.5L55.9 160.2Z"/>
    <path d="M51.6 158.7L51.3 158.9L50.5 158.5L50.6 158.3L51 158.1L51.6 158.2L51.6 158.7Z"/>
    <path d="M250.8 156.9L251.8 157.7L254.1 157.5L255 158L257.1 159.5L258.7 160.5L259.5 160.5L261 161L260.8 161.6L262.7 161.7L264.6 162.7L264.3 163.2L262.6 163.5L260.9 163.6L259.2 163.4L255.6 163.7L257.3 162.4L256.3 161.8L254.7 161.6L253.8 160.9L253.2 159.6L251.8 159.7L249.5 159.1L248.7 158.6L245.4 158.2L244.6 157.8L245.5 157.2L243.1 157.1L241.3 158.3L240.2 158.3L239.9 158.9L238.6 159.1L237.6 158.9L238.9 158.2L239.4 157.3L240.6 156.8L241.8 156.4L243.7 156.1L244.3 155.9L246.5 156.1L248.5 156.1L250.8 156.9Z"/>
    <path d="M256.2 154.6L255.6 154.7L254.9 153.3L254 152.7L254.5 151.2L255.3 151.3L256.1 153.2L256.2 154.6Z"/>
    <path d="M752.9 156.8L751.9 158.7L750.6 156.8L750.3 155L751.7 152.7L753.7 151L754.9 151.7L754.4 153.1L752.9 156.8Z"/>
    <path d="M255.4 148L252.7 148.4L252.5 147.5L253.7 147.3L255.4 147.4L255.4 148Z"/>
    <path d="M257.5 148L257.1 149.6L256.6 149.3L256.7 148.1L255.5 147.2L255.5 146.9L257.5 148Z"/>
    <path d="M786.6 130.3L786.9 131.1L785.5 132.5L784.5 131.8L783.2 132.3L782.5 133.7L780.9 133L780.9 131.9L782.3 130.5L783.7 130.8L784.8 129.8L786.6 130.3Z"/>
    <path d="M536.4 126.8L534.8 127.8L534.9 128.2L535 128.4L532.4 129.3L531.2 129L530.6 128.1L531.8 128L532 128L532.4 127.4L534.2 127.5L536.4 126.8Z"/>
    <path d="M509.2 126.7L510.6 127.5L512.6 127.3L514.4 127.5L514.4 127.9L515.7 127.6L515.4 128.3L511.8 128.5L511.8 128.1L508.8 127.7L509.2 126.7Z"/>
    <path d="M488.8 120.8L487.9 122.6L488.3 123.4L487.7 124.6L485.8 123.7L484.6 123.4L481.1 122.2L481.4 121L484.4 121.3L486.9 121L488.8 120.8Z"/>
    <path d="M473 113.8L474.5 115.5L474.2 118.6L473 118.4L472 119.2L471.1 118.6L471 115.8L470.4 114.4L471.8 114.6L473 113.8Z"/>
    <path d="M802.4 123.3L801.5 125.2L801.9 126.4L800.6 128L797.4 129.1L793 129.3L789.5 131.9L787.8 131L787.7 129.3L783.4 129.8L780.4 130.9L777.5 130.9L780 132.7L778.3 136.6L776.7 137.6L775.5 136.7L776.1 134.6L774.5 133.9L773.5 132.3L775.9 131.6L777.2 130.1L779.7 128.9L781.5 127.3L786.5 126.6L789.2 127.1L791.8 123L793.5 124.1L797.1 121.7L798.6 120.8L800.1 118L799.7 115.4L800.8 113.9L803.4 113.5L804.8 116.7L804.7 118.6L802.4 120.9L802.4 123.3Z"/>
    <path d="M473.9 111.6L473.1 113.4L471.9 113L471.4 111.4L471.9 110.5L473.5 109.6L473.9 111.6Z"/>
    <path d="M809.8 106.9L811.5 107.4L813.3 106.4L813.9 109.1L810.1 109.7L808 112L804 110.4L802.7 113L799.9 113L799.5 110.7L800.8 108.9L803.5 108.8L804.2 105.5L804.9 103.7L807.9 106.1L809.8 106.9Z"/>
    <path d="M290.8 101.4L292.7 101.7L295 101.6L293.7 102.6L292.8 102.7L289.6 101.8L289 101L290 100.2L290.8 101.4Z"/>
    <path d="M295.5 95.4L294.3 95.5L291 94.7L288.7 93.6L289.6 93.4L292.9 94L295.4 95L295.5 95.4Z"/>
    <path d="M141.2 96.8L140 97.1L135.9 96.1L135.1 95.2L132.9 94.4L132.4 93.8L129.9 93.3L128.9 92.1L129.1 91.5L131.7 92L133.3 92.4L135.6 92.6L136.5 93.4L137.7 94.6L140.2 95.5L141.2 96.8Z"/>
    <path d="M309.7 91.7L308 93.8L309.6 93L311.3 93.5L310.4 94.3L312.7 94.9L313.8 94.4L316.3 95.1L315.5 96.8L317.3 96.4L317.6 97.6L318.4 99.1L317.3 101.1L316.2 101.2L314.6 100.8L315.1 98.9L314.4 98.6L311.5 100.6L310 100.5L311.8 99.4L309.4 98.9L306.7 99L301.8 98.9L301.5 98.2L303 97.4L301.9 96.8L304 95.4L306.6 91.7L308.2 90.3L310.3 89.5L311.5 89.6L311 90.3L309.7 91.7Z"/>
    <path d="M118.2 83.9L118.2 83.9L118.2 83.9L118.2 83.9L120.6 83.7L119.9 86.4L122.1 88.2L121.1 88.2L119.5 87.2L118.6 86.1L117.4 85.4L116.9 84.3L117 83.6L118.2 83.9Z"/>
    <path d="M809.1 91.6L811.6 95.7L807.9 95L806.4 98.3L808.8 100.7L808.8 102.3L806.9 100.9L805.2 102.7L804.8 100.8L805 98.5L804.8 96L805.3 94.2L805.4 91.1L804 88.8L804.2 85.6L806.5 84.6L805.5 83.5L806.6 83.1L807.3 84.7L808.2 86.9L808.1 89.2L809.1 91.6Z"/>
    <path d="M433 88.1L428.6 89.4L425.1 89.1L427.1 86.6L425.8 84.3L429.2 82.4L431.1 81.4L433.2 81.3L435.8 82.7L434.5 84.3L434.9 86L433 88.1Z"/>
    <path d="M481.7 80.2L480.2 82.1L477.6 80.8L477.3 79.8L480.9 79.1L481.7 80.2Z"/>
    <path d="M67.5 76.7L65 77.6L63.7 77L63.3 75.9L65.6 75.1L66.9 74.7L68.6 74.9L69.6 75.6L67.5 76.7Z"/>
    <path d="M442.5 73.2L439.8 75.7L442.4 75.4L445.1 75.4L444.5 77.3L442.2 79.4L444.8 79.5L447.2 82.5L448.9 82.9L450.5 85.6L451.2 86.5L454.2 86.9L453.9 88.4L452.6 89.1L453.6 90.3L451.4 91.5L448 91.5L443.8 92.2L442.6 91.7L441 92.8L438.6 92.5L436.9 93.4L435.6 93L439.2 90.5L441.5 90L437.5 89.6L436.8 88.7L439.4 88L438.1 86.7L438.6 85.2L442.3 85.4L442.6 84L440.9 82.6L437.9 82.2L437.3 81.5L438.2 80.5L437.4 79.8L436 80.9L435.9 78.7L434.6 77.5L435.5 75.1L437.5 73.2L439.5 73.4L442.5 73.2Z"/>
    <path d="M36.1 70.2L34.5 70.6L32.9 70.1L31.4 69.5L33.8 69.1L35.8 69.3L36.1 70.2Z"/>
    <path d="M251.8 65L250.9 66.2L249.8 66L249.1 65.3L249.2 65.1L250.2 64.4L251.2 64.5L251.8 65Z"/>
    <path d="M245.3 63.7L242.3 65L240.6 64.9L240 64.3L241.9 63.2L245.3 63.2L245.3 63.7Z"/>
    <path d="M20.7 61.2L22.2 61.6L23.8 61.4L25.8 62L28.3 62.3L28.1 62.6L26.2 63.1L24.3 62.5L23.3 62.1L21.1 62.3L20.5 62.1L20.7 61.2Z"/>
    <path d="M237.1 56.8L237.6 57.8L238.8 57.5L240.3 58.1L243 58.9L245.9 59.6L246.1 60.7L248 60.5L249.7 61.3L247.5 62L243.6 61.5L242.2 60.4L239.7 61.7L236.2 62.9L235.3 61.5L231.9 61.7L234.1 60.6L234.4 58.7L235.3 56.6L237.1 56.8Z"/>
    <path d="M413.7 54.9L413.2 56.4L416 58L412.7 59.8L405.5 61.4L403.4 61.8L400.1 61.5L393.1 60.8L395.6 59.7L390.1 58.6L394.5 58.1L394.4 57.4L389.2 56.9L390.9 55.4L394.7 55L398.6 56.6L402.4 55.4L405.5 56L409.6 54.8L413.7 54.9Z"/>
    <path d="M260.3 53.3L257.5 53.4L256.9 52.3L258 51L260.3 50.7L262.2 51.3L262.2 52.3L262 52.6L260.3 53.3Z"/>
    <path d="M12.5 54.6L14.2 55.2L13.6 53.5L20.4 53.9L25.3 56.1L22.8 57.1L18.7 57.3L18.6 59.6L17.6 60.1L15.3 60L13.4 59.2L10 58.5L9.5 57.5L6.9 57.1L4.1 57.4L2.7 56.6L3.3 55.7L0.3 56.3L1.4 57.4L0 58.4L0 49.1L6.1 50.9L12.7 53.2L12.5 54.6Z"/>
    <path d="M210.9 48.7L209.3 49.6L206 48.9L203.9 49.1L200.5 48.1L202.7 47.3L204.5 46.3L207.1 47L208.6 47.4L209.4 47.9L210.9 48.7Z"/>
    <path d="M900 44.7L897.3 44.8L896.8 44.1L900 43.1L900 44.7Z"/>
    <path d="M3.3 44.6L0 44.7L0 43.1L0.3 43L2.4 43L6.1 43.7L5.8 44L3.3 44.6Z"/>
    <path d="M223.6 47.8L223.6 50.2L227 48.4L230 49.9L229.2 51.6L231.6 53.2L234.2 51.5L236.1 49.5L236.2 46.9L239.7 47.1L243.4 47.5L246.8 48.6L246.9 49.8L245.1 51L246.9 52.3L246.5 53.4L241.6 55L238.2 55.4L235.6 54.7L234.8 55.9L232.4 57.8L231.7 58.9L228.8 60.4L225.2 60.6L223.2 61.6L223.1 63.1L220.2 63.4L217.1 65.3L214.4 67.9L213.4 69.7L213.3 72.5L217 72.8L218.1 75L219.3 76.8L222.8 76.3L227.4 77.3L229.9 78.2L231.7 79.3L234.8 80L237.5 81L241.6 81.1L244.3 81.3L243.9 83.3L244.7 85.7L246.5 88.3L250.2 90.5L252.1 89.8L253.5 87.4L252.2 83.7L250.4 82.4L254.4 81.3L257.3 79.7L258.6 78.1L258.4 76.5L256.7 74.5L253.7 72.8L256.7 70.3L255.6 68.2L254.7 64.6L256.5 64L260.8 64.7L263.3 64.9L265.4 64.3L267.7 65.1L270.8 66.4L271.6 67.3L276 67.5L275.9 69.5L276.8 72.4L279.1 72.8L280.9 74.2L284.5 72.9L286.9 70.3L288.5 69.2L290.5 71.3L293.7 74.3L296.5 77.1L295.5 78.5L298.8 79.9L301.1 81.2L305.1 81.8L306.7 82.5L307.7 84.5L309.6 84.8L310.6 85.7L310.8 88.3L309 89.2L307.2 90L303.1 90.9L299.9 92.8L295.7 93.1L290.3 92.7L286.6 92.6L284 92.8L281.9 94.5L278.7 95.5L275.1 98.6L272.2 100.7L274.4 100.4L278.4 97.3L283.6 95.4L287.4 95.1L289.6 96.3L287.2 97.8L288 100.3L288.8 102.1L292.1 103.3L296.2 102.9L298.7 100.3L298.9 102L300.5 102.9L297.4 104.4L291.9 105.8L289.4 106.7L286.6 108.4L284.7 108.2L284.6 106.2L288.9 104.3L284.9 104.4L282.2 104.7L282.6 105.4L279.9 106.6L277.4 107.4L274.7 108.1L273.3 109.6L273 110L272.9 111.2L273.8 112.5L274.8 112.5L274.5 111.7L275.3 112.2L275.1 112.8L273.4 113.2L272.2 113.2L270.4 113.6L269.3 113.7L267.8 113.8L265.7 114.5L269.4 114.1L270.1 114.5L266.6 115.2L265 115.2L265.1 114.9L264.4 115.6L265.1 115.7L264.6 117.3L262.7 119.1L262.5 118.5L262 118.4L261.2 117.8L261.7 119.1L262.3 119.5L262.4 120.4L261.6 121.3L260.1 123.2L259.9 123.1L260.7 121.5L259.4 120.6L259.1 118.6L258.6 119.7L259.2 121.1L257.6 120.8L259.2 121.5L259.4 123.7L260.1 123.9L260.3 124.7L260.7 127L259.1 128.8L256.5 129.5L254.9 130.8L253.6 131L252.3 131.8L252 132.6L249.2 134.1L247.8 135.3L246.7 136.6L246.3 138.3L246.7 139.9L247.6 141.9L248.7 143.6L248.7 144.6L249.9 147.3L249.8 148.9L249.7 149.8L249 151.2L248.3 151.5L247.1 151.2L246.7 150.2L245.7 149.6L244.4 147.6L243.2 145.8L242.9 144.9L243.4 143.4L242.7 142.1L240.7 140.1L239.8 139.8L237.2 140.8L236.8 140.7L235.6 139.6L234 139.1L231.2 139.4L229 139.1L227 139.3L226 139.6L226.5 140.2L226.4 141.2L227 141.7L226.5 142L225.6 141.6L224.6 142.1L222.8 142L220.9 140.8L218.8 141L216.9 140.5L215.4 140.7L213.3 141.2L211 142.9L208.5 143.9L207.1 145.1L206.6 146.1L206.5 147.7L206.7 148.8L207.1 149.6L207.2 149.6L207.1 149.6L206.2 151.7L205.7 153.4L205.6 156.5L205.3 157.6L205.8 158.9L206.5 160L207 161.9L208.7 163.6L209.3 164.9L210.2 166.1L212.9 166.7L213.9 167.7L216.1 167L218 166.8L219.9 166.4L221.5 166L223.1 165L223.7 163.6L223.9 161.7L224.3 161L226 160.4L228.6 159.8L230.9 159.9L232.4 159.7L233 160.2L232.9 161.4L231.5 162.7L230.9 164.2L231.4 164.6L231 165.6L230.4 167.4L229.8 166.8L229.3 166.8L229.3 167.2L229.7 167.2L229.7 167.8L229.3 168.8L229.5 169.2L229.2 170L229.4 170.2L229.1 171.4L228.6 172L228.2 172.1L227.7 172.9L228.5 173.4L228.7 173L229.4 173.3L229.7 173.4L230.2 173L231 172.9L231.2 173.1L231.6 173L232.7 173.2L233.9 173.2L234.7 172.9L235 172.7L235.8 172.8L236.4 172.9L237 172.9L237.5 172.7L238.7 173L239.1 173.1L239.8 173.5L240.6 174L241.5 174.4L242.1 175L241.9 175.2L241.8 175.8L242 176.6L241.5 177.4L241.2 178.3L241.1 179.4L241.3 180L241.3 181L240.9 181.3L240.7 182.2L240.9 182.9L240.4 183.5L240.5 184.1L240.9 184.5L241.5 185.7L242.5 186.7L243.6 187.7L244.5 188.5L244.5 189L245.5 189.1L245.7 188.9L246.4 189.5L247.6 189.3L248.7 188.7L250.2 188.3L251.1 187.6L252.4 187.7L252.4 187.9L253.7 188L254.9 188.4L255.7 189.1L256.6 189.8L257.9 189.8L259.8 188.2L260.8 188L260.8 187.2L261.3 185.2L262.7 184.1L264.3 184.1L264.5 183.6L266.5 183.8L268.4 182.6L269.4 182.1L270.6 181L271.5 181.1L272.2 181.7L271.7 182.5L271.6 183.1L270.1 183.3L270.9 184.4L270.9 185.6L269.8 187L270.8 188.8L271.8 188.7L272.4 187L271.6 186.2L271.5 184.4L274.6 183.5L274.3 182.4L275.1 181.6L276 183.3L277.8 183.3L279.4 184.6L279.5 185.4L281.8 185.4L284.4 185.2L285.9 186.2L287.8 186.5L289.2 185.8L289.2 185.2L292.3 185L295.3 185L293.2 185.7L294 186.8L296 187L297.9 188.1L298.3 190L299.6 189.9L300.6 190.5L302.2 191.3L303.8 192.9L303.9 194.1L304.8 194.1L306.1 195.3L307.1 196.1L310.1 196.5L310.4 196.1L312.4 195.9L315.1 196.6L316 196.8L317.8 197.4L320.4 199.3L320.9 200.3L321.7 200.2L322.3 201.5L323.7 205.6L325.1 205.9L325.1 207.6L323.3 209.5L324 210.2L328.4 210.5L328.5 212.9L330.4 211.4L333.6 212.2L337.7 213.6L339 215L338.5 216.3L341.5 215.6L346.3 216.8L350.1 216.7L353.7 218.6L356.9 221.2L358.9 221.9L361 222L361.9 222.8L362.8 225.7L363.2 227.1L362.2 231L360.9 232.5L357.4 235.8L355.8 238.4L353.9 240.4L353.3 240.5L352.6 242.2L352.8 246.6L352.1 250.2L351.8 251.7L351 252.6L350.6 255.7L348.1 258.8L347.6 261.2L345.6 262.2L345 263.6L342.3 263.6L338.4 264.5L336.6 265.5L333.8 266.2L330.9 268.1L328.8 270.4L328.4 272.1L328.8 273.4L328.3 275.8L327.8 276.9L326 278.2L323.3 282.3L321.1 284.1L319.4 285.2L318.2 287.5L316.6 288.8L315.5 290.3L312.7 291.6L310.8 291.1L309.5 291.3L307.2 290.3L305.5 290.4L303.9 289.1L303.8 290.3L306.9 292.3L306.6 293.9L308.2 295L308 296.1L305.6 299.1L301.9 300.3L296.9 300.8L294.2 300.6L294.7 302L294.2 303.7L294.6 304.9L293.1 305.7L290.6 306.1L288.2 305.2L287.2 305.8L287.6 308.1L289.2 308.8L290.6 308.1L291.4 309.3L289.1 310L287 311.5L286.7 313.8L286.1 315.1L283.7 315.1L281.8 316.3L281 318L283.5 319.7L285.9 320.2L285 322.3L282.1 323.6L280.5 326.4L278.2 327.3L277.2 328.4L278 330.8L279.6 332.1L278.6 332L276.3 332L275.1 332.6L272.9 333.4L272.5 335.6L271.4 335.7L268.6 334.9L265.7 333.3L262.6 331.9L261.8 330.5L262.6 329.1L261.3 327.5L261 323.6L262 321.3L264.7 319.5L260.9 318.8L263.3 316.8L264.1 312.9L266.9 313.7L268.2 308.9L266.5 308.3L265.7 311.2L264.2 310.9L265 307.5L265.8 303.2L267 301.6L266.2 299.3L266 296.7L267.1 296.6L268.6 292.9L270.3 289.1L271.4 285.6L270.8 282.1L271.6 280.2L271.3 277.3L272.7 274.5L273.2 270L274 265.1L274.8 259.9L274.6 256.1L274.1 252.8L271.6 251.5L271.3 250.5L266.4 248.2L261.9 245.6L260 244.2L258.9 242.3L259.4 241.6L257.2 238.5L254.8 234.2L252.4 229.6L251.4 228.5L250.6 226.8L248.7 225.3L246.9 224.3L247.7 223.3L246.5 221.1L247.3 219.4L249.2 217.9L250.6 216.2L250 215.2L249.1 216.3L247.6 215.2L248.1 214.6L247.7 212.5L248.5 212.1L249 210.7L249.9 209.2L249.8 208.2L251.1 207.7L252.9 206.8L252.5 206.1L253.5 205.9L253.3 204.7L253.9 203.9L255.2 203.7L256.2 202.2L257.2 201L256.3 200.5L256.7 199.1L256.2 197L256.7 196.4L256.3 194.4L255.3 193.1L254.5 192.5L253.9 191.2L254.5 190.6L253.9 190.4L253.4 189.7L252.2 189L251.1 189.2L250.6 190L249.6 190.6L249 190.6L248.8 191.1L250 192.4L249.3 192.7L248.9 193L247.8 193.2L247.4 191.8L247 192.2L246.2 192L245.7 191.1L244.7 190.9L244 190.7L242.9 190.7L242.9 191.2L242.6 190.8L241.2 190.3L240.7 189.8L241 189.4L240.9 188.9L240.2 188.3L239.2 187.9L238.4 187.6L238.2 186.9L237.6 186.5L237.7 187.1L237.2 187.7L236.7 187.1L235.8 186.8L235.5 186.4L235.5 185.6L235.9 184.9L235.1 184.6L235.7 184.1L234.9 183.4L233.7 182.5L233.1 181.7L232.1 180.9L230.8 179.9L231.1 179.5L231.5 179.9L231.7 179.7L231.3 179L230.5 178.8L230.2 179.3L228.8 179.3L227.9 179.1L226.9 178.6L225.5 178.5L224.8 178L223.5 177.5L221.9 177.5L220.8 177L219.4 176.1L216.6 173.6L215.3 172.8L213.3 172.2L211.9 172.4L209.9 173.2L208.6 173.5L206.8 172.9L205 172.4L202.6 171.3L200.8 171L197.9 169.9L195.8 168.8L195.2 168.2L193.8 168.1L191.2 167.3L190.2 166.3L187.5 164.9L186.3 163.5L185.7 162.3L186.5 162.1L186.2 161.4L186.8 160.8L186.8 160L186 159L185.8 158L184.9 156.9L182.7 154.5L180.2 152.7L179 151.3L176.8 150.3L176.4 149.7L176.8 148.3L175.5 147.8L174 146.6L173.4 145L172.1 144.8L170.6 143.6L169.4 142.4L169.3 141.7L168 140L167.1 138.2L167.1 137.3L165.3 136.3L164.5 136.4L163.1 135.8L162.7 136.7L163.1 137.9L163.3 139.6L164.2 140.6L166 142.2L166.4 142.7L166.8 142.9L167.1 143.7L167.6 143.7L168.1 145.2L168.9 145.8L169.4 146.6L171 147.8L171.8 150L172.5 151L173.2 152.1L173.4 153.3L174.6 153.4L175.6 154.4L176.5 155.5L176.4 155.9L175.4 156.8L174.9 156.7L174.3 155.3L172.6 154L170.8 152.9L169.5 152.3L169.6 150.6L169.2 149.3L168.1 148.6L166.3 147.5L166 147.8L165.4 147.2L163.8 146.7L162.4 145.3L162.5 145.1L163.6 145.3L164.5 144.4L164.6 143.3L162.7 141.7L161.2 141L160.3 139.6L159.4 138L158.2 136.2L157.2 134.1L156.8 132.9L155.1 131.6L154 131.3L153.7 130.6L152.3 130.5L151.4 129.9L149.1 129.6L148.4 129.2L148.1 128L145.7 125.6L143.6 122.4L143.7 121.8L142.6 121.1L140.7 119.1L140.3 117.2L139 115.9L139.6 114L139.5 112L138.7 110.2L139.6 108L140.3 103.8L139.8 100.6L139 98.7L138.3 97.6L138.6 97.1L142.2 97.9L143.5 100.1L144.1 99.5L143.8 97.6L142.9 95.7L142.6 95.7L137.7 93.4L135.9 92.4L131.4 91.4L130 89.3L130.4 87.9L127.2 86.9L126.7 85L123.7 83.3L123.7 82.1L122.3 81.2L120.1 80.5L119.4 78.5L116.2 76.6L114.8 74.4L112.4 74.2L108.4 74.2L105.5 73.5L100.3 71.1L97.9 70.6L93.6 69.8L90.1 70L85.2 68.9L82.2 67.9L79.4 68.4L80 70.1L78.6 70.2L75.7 70.7L73.5 71.5L70.7 72L70.4 70.6L71.5 68.3L74.1 67.6L73.4 67L70.3 68.3L68.6 69.9L65 71.5L66.8 72.6L64.4 74.3L61.7 75.3L59.2 76L58.6 77L54.7 78.3L53.9 79.3L51 80.3L49.3 80.2L46.9 80.8L44.4 81.6L42.3 82.4L38 83.1L37.6 82.7L40.4 81.6L42.8 80.9L45.5 79.6L48.6 79.3L49.8 78.4L53.3 77L53.8 76.5L55.7 75.7L56.1 73.9L57.4 72.5L54.5 73.2L53.7 72.8L52.4 73.7L50.7 72.5L50 73.3L49.1 72.2L46.6 73.1L45.1 73.1L44.9 71.7L45.3 70.9L43.7 70L40.5 70.5L38.3 69.4L36.6 68.8L36.6 67.5L34.7 66.5L35.7 65.2L37.7 63.9L38.6 62.7L40.6 62.5L42.3 62.9L44.3 61.7L46.2 61.9L48.1 61.2L47.6 60.1L46.2 59.7L48.1 58.8L46.5 58.9L43.9 59.4L43.1 59.9L41.1 59.4L37.6 59.6L33.9 59.1L32.9 58.1L29.7 56.8L33.2 55.8L38.8 54.7L40.9 54.7L40.5 55.8L45.8 55.7L43.8 54.3L40.7 53.4L38.9 52.2L36.5 51.2L33.1 50.5L34.5 49.3L38.9 49.2L42.1 48.1L42.7 47L45.2 45.9L47.7 45.6L52.4 44.6L54.7 44.7L58.5 43.5L62.3 44L64.1 45L65.2 44.6L69.5 44.7L69.3 45.3L73.2 45.7L75.7 45.4L81 46.2L85.8 46.4L87.7 46.7L91 46.3L94.8 47L97.5 47.3L102.2 47.9L106.1 49L108.7 49.2L110.9 48.3L114 47.5L117.7 47.8L121.4 46.8L125.5 46.2L127.2 47.2L129.1 46.6L129.7 45.5L131.4 45.8L135.6 47.9L138.9 46.3L139.3 48.1L142.3 47.7L143.3 47L146.3 47.1L150.1 48.1L156 49L159.4 49.4L161.9 49.2L165.3 50.4L161.7 51.6L166.3 52.1L173 51.8L175.1 51.4L177.8 52.8L180.5 51.6L178 50.6L179.6 49.8L182.6 49.7L184.6 49.5L186.6 50L189.2 51.3L191.9 51.1L196.4 52.2L200.2 51.8L203.9 51.8L203.6 50.4L205.8 50L209.7 50.8L209.7 53L211.3 51.1L213.3 51.2L214.4 48.8L211.7 47.4L208.8 46.5L209 43.9L212 42.2L215.3 42.6L217.8 43.6L221.2 46.2L219 47.4L223.6 47.8Z"/>
    <path d="M164.6 39.4L163.3 40.5L168.9 39.8L172.4 40.9L175.2 39.8L177.5 40.5L179.5 42.8L180.8 41.8L179 39.5L181.2 39.1L183.7 39.5L186.5 40.4L188.1 42.7L188.8 44.3L193 45.5L197.5 46.6L197.3 47.6L193.2 47.8L194.8 48.7L193.9 49.6L189.4 49.2L185.1 48.6L182.2 48.7L177.5 49.5L170.1 49.9L166.7 50.1L165.4 49L161.9 48.3L159.7 48.6L156.7 46.8L158.3 46.5L162.2 46.1L165.7 46.2L169 45.8L164.1 45.3L158.8 45.5L155.2 45.4L153.9 44.5L159.7 43.6L155.9 43.6L151.5 43L153.6 41.3L155.3 40.4L162 38.9L164.6 39.4Z"/>
    <path d="M188.8 38.7L186.6 40.2L182.7 38.6L183.5 38.3L186.8 38.2L188.8 38.7Z"/>
    <path d="M259.1 39.4L259.4 40.1L256.7 40L254 40L251.3 40.3L250.6 40.1L247.8 38.9L247.9 38L249.1 37.9L254.8 38.1L259.1 39.4Z"/>
    <path d="M233.6 39.3L235.6 40.8L237.9 38.9L244.2 37.9L248.5 40.3L248.1 41.9L253.1 41.2L255.4 40.3L261 41.4L264.4 42.5L264.8 43.6L269.4 43L272 44.5L278 45.4L280.2 46.4L282.6 48.6L278 49.7L283.9 51.2L287.8 51.7L291.4 53.8L295.4 54L294.6 55.6L290.2 58.3L287.1 57.3L283.2 55.1L280 55.4L279.6 56.7L282.3 58.1L285.7 59.2L286.7 59.8L288.3 62.1L287.5 63.8L284.3 63.1L278 61.3L281.6 63.3L284.2 64.7L284.6 65.5L277.8 64.6L272.4 63.2L269.4 62.1L270.3 61.4L266.6 60.2L262.9 59.1L263 59.8L255.7 60.1L253.6 59.3L255.3 57.6L260 57.6L265.1 57.3L264.3 56.4L265.1 55.3L268.4 53L267.7 52L266.7 51.2L262.9 50L257.8 49.2L259.4 48.7L256.8 47.2L254.6 47.1L252.6 46.3L251.3 47L246.7 47.3L237.6 46.7L232.3 46.1L228.3 45.7L226.2 44.9L228.8 43.8L225.3 43.8L224.5 41.5L226.4 39.4L229 38.4L235.4 37.8L233.6 39.3Z"/>
    <path d="M199.1 37.7L202.1 38.2L206.6 37.9L207.2 38.6L204.9 39.7L208.6 40.7L208.2 42.8L204.1 43.7L201.7 43.5L200 42.6L193.8 40.8L193.8 40.1L198.9 40.4L196.2 38.8L199.1 37.7Z"/>
    <path d="M809 39.2L805.2 39.2L800.1 38.9L799.7 38.8L802 37.9L805.2 37.7L808.7 38.6L809 39.2Z"/>
    <path d="M217 40.2L214.3 41.9L211.5 41.9L209.9 39.8L210 38.6L211.3 37.7L213.7 37L218.9 37.1L223.7 37.7L220 39.7L217 40.2Z"/>
    <path d="M148.9 43.4L142.3 44.6L140.9 43.5L135.2 42.3L136 41.5L138 39.6L140.2 38.1L137.7 36.7L146.2 36.3L149.7 36.8L156.1 36.9L158.5 37.6L161.2 38.6L158.1 39.1L151.9 40.8L148.9 42.4L148.9 43.4Z"/>
    <path d="M826.8 34.8L823.9 35.7L819.9 35.5L815.3 34.6L815.9 33.8L820.6 34.2L826.8 34.8Z"/>
    <path d="M216 35L214.6 36L211 35.8L207.9 35.2L209.3 34.1L212.9 33.5L215.1 34.3L216 35Z"/>
    <path d="M812.7 33.7L810.8 35.4L801.5 35.4L797.4 35.9L792.4 34.4L793.8 32.8L797.1 32.3L803.7 32.4L812.7 33.7Z"/>
    <path d="M203.8 31L205.7 32.1L205.7 33.3L204.6 35L200.5 35.2L197.8 34.9L197.8 33.5L193.7 33.7L193.6 31.9L196.3 32L200 31.2L203.6 31.3L203.8 31Z"/>
    <path d="M179.5 32.2L180.5 33L182.7 32.6L185.3 32.7L185.7 33.9L184.2 35L175.8 35.4L169.4 36.4L165.6 36.4L165.3 35.7L170.5 34.6L159.2 34.9L155.7 34.5L159.1 32.2L161.5 31.5L168.5 32.3L173 33.7L177.3 33.9L173.8 31.7L176 30.8L178.6 31.1L179.5 32.2Z"/>
    <path d="M593.8 45L592.4 45.2L584.2 44.9L583.5 43.9L579 43.2L578.6 42L581.2 41.5L581.1 40.2L586.1 38.2L583.8 37.9L589.8 35.9L589.1 34.8L594.7 33.6L602.9 32.1L611.2 31.6L615.5 30.8L620.4 30.5L622.1 31.4L620.5 32.1L611.6 33.3L604 34.4L596.2 36.6L592.5 38.9L588.5 41.1L589.1 43.1L593.8 45Z"/>
    <path d="M213.3 30.1L216.1 30.9L221 30.9L223.1 31.6L222.6 32.5L225.4 33L227 33.6L230.4 33.7L234.1 33.9L238 33.4L243.1 33.2L247.2 33.3L249.9 34.2L250.4 35.2L248.9 35.8L245.1 36.3L241.9 36L234.8 36.4L229.6 36.4L225.6 36.1L218.9 35.4L218.1 34.1L217.8 32.9L215.3 31.9L210.1 31.6L207.2 30.9L208.1 30L213.3 30.1Z"/>
    <path d="M159.5 28.8L159.2 30.6L157.2 31.4L154.9 31.5L150.3 32.5L146.3 32.9L142.9 32.4L142.9 32.4L147.1 30.6L152.2 29.1L156.1 29.2L159.5 28.8Z"/>
    <path d="M717.4 30.4L718.1 31.5L720.4 31L727.7 31L733.3 32.1L735.3 33L734.7 34.2L731.9 34.9L725.4 36.2L723.5 36.9L726.6 37.2L730.3 37.8L732.5 37.4L733.8 38.9L734.9 38.3L738.9 37.9L746.9 38.3L747.6 39.4L758 39.7L758.1 38L763.5 38.4L767.4 38.3L771.5 39.6L772.6 41.1L771.2 42L774.3 43.9L778.2 44.8L780.6 42.4L784.6 43.4L788.9 42.8L793.7 43.5L795.6 42.9L799.7 43.2L797.9 41L801.2 40L823.8 41.5L825.9 42.9L832.4 44.7L842.5 44.3L847.5 44.6L849.6 45.6L849.3 47.3L852.4 48L855.7 47.5L860.1 47.4L864.9 47.9L869.6 47.6L873.9 49.7L877 49L875 47.5L876.1 46.4L884.1 47.1L889.3 47L896.5 48.1L900 49.1L900 58.4L900 58.4L896.8 59.4L893.5 59.2L895.8 60.5L897.3 62.4L898.4 63L898.7 64L898.1 64.6L893.4 64.1L886.4 65.9L884.2 66.1L880.4 67.8L876.7 69.2L875.8 70.3L872.3 68.7L865.7 70.5L864.6 69.6L862.2 70.6L858.8 70.3L858 71.8L855 74.1L855.1 75L858 75.6L857.6 79L855.3 79L854.3 81L855.3 82L850.9 83.2L850.1 85.9L846.3 86.4L845.6 88.8L842 91L841.1 89.4L840 86L838.6 80.8L839.8 77.5L841.9 76.1L842 75.1L845.9 74.5L850.4 71.6L854.7 69.2L859.2 67.3L861.2 64L858.1 64.2L856.6 66.2L850.3 68.7L848.3 65.9L841.8 66.7L835.5 70.6L837.6 72L832 72.6L828.2 72.8L828.3 71.2L824.5 70.8L821.4 71.9L813.7 71.5L805.5 72.2L797.4 76.8L787.8 82.3L791.8 82.6L793 84.1L795.4 84.6L797 83.4L799.8 83.6L803.4 86.1L803.4 88.1L801.5 90.4L801.3 93.2L800.2 97L796.4 100.3L795.5 101.9L792.2 104.7L788.8 107.4L787.2 108.7L783.8 110.1L782.3 110.1L780.7 109L777.3 110.7L777 111.5L776 111.3L774.9 112.1L774.2 112.9L774.3 114.6L773 115.1L772.5 115.5L771.6 116.2L769.9 116.6L768.8 117.2L768.8 118.2L768.5 118.5L769.5 118.9L770.9 119.9L773 122.7L773.7 124.2L773.7 126.9L772.7 128.1L770.5 128.6L768.5 129.6L766.2 129.8L765.9 128.5L766.4 126.7L765.3 124.3L767.2 123.9L765.4 121.9L764.2 121.5L763.9 121.9L763.2 122.1L763.1 121.7L762.5 121.5L761.8 121.1L762.5 120.1L763.1 119.8L762.8 119.4L763.5 118.1L763.3 117.7L761.8 117.5L760.7 116.8L757.2 117.5L755.3 118.6L752.6 119.2L754 118.2L753.4 117.2L755.4 115.7L754.1 114.5L751.9 115.3L749.1 116.9L747.6 118.4L745.1 118.5L743.8 119.6L745.1 121.2L747.2 121.6L747.3 122.6L749.3 123.3L752.1 121.6L754.3 122.5L755.9 122.6L756.3 123.8L752.8 124.5L751.6 125.7L749.2 126.9L747.9 128.5L750.6 129.8L751.6 132.1L753.1 134.3L754.8 136.1L754.7 137.8L753.2 138.4L753.8 139.7L755.2 140.4L754.8 142.3L754.2 144.1L752.8 144.4L751 146.9L749 149.9L746.6 152.7L743.2 154.9L739.7 156.8L736.9 157.1L735.4 158.1L734.5 157.4L733.1 158.5L729.6 159.7L727 160.1L726.1 162.5L724.7 162.7L724.1 161L724.7 160.1L721.3 159.3L720.1 159.7L716.8 161.7L714.7 163.9L714.2 165.5L716.1 168L718.4 171L720.7 172.5L722.2 174.4L723.3 178.7L723 182.8L720.9 184.3L718.1 185.8L716 187.8L712.9 189.9L712 188.4L712.7 186.9L710.8 185.5L708.7 185.2L707.7 184L706.5 181.6L704.2 180.5L702.1 180.5L702.4 178.7L700.2 178.7L700 181.3L698.7 184.7L697.9 186.8L698.1 188.4L699.7 188.5L700.7 190.6L701.1 192.7L702.5 194L704.1 194.3L705.4 195.5L705.9 195.7L707.4 197.1L708.5 198.7L708.6 200.2L708.3 201.3L708.6 202.1L708.8 203.5L709.6 204.1L710.6 206.2L710.6 207L708.8 207.1L706.4 205.4L703.5 203.6L703.2 202.4L701.7 200.8L701.4 198.9L700.5 197.6L700.8 195.9L700.2 194.9L699.2 194L698.8 192.9L697.5 191.5L696.3 190.4L695.8 191.8L695.4 190.5L695.6 189.1L696.4 186.8L696.1 185.1L696.9 183.3L696.1 181.9L696.3 179.4L695.3 178.2L694.4 175.4L694 172.4L692.9 170.5L691.3 171.7L688.4 173.3L687 173.1L685.5 172.6L686.3 169.7L685.8 167.5L683.9 164.8L684.2 164L682.7 163.7L680.9 161.8L680.2 160.6L680.1 159.4L679.6 158.2L678.5 156.9L676.2 156.8L676.5 157.7L675.7 159L674.6 158.6L674.3 159L673.5 158.7L672.6 158.5L672.2 159.4L670.5 159.4L667.4 159.8L667.6 161.6L666.2 163L662.7 164.5L659.9 167.3L658 168.8L655.5 170.3L655.5 171.4L654.2 171.9L652 172.8L650.8 172.9L650.1 174.7L650.6 177.7L650.7 179.7L649.7 181.9L649.6 185.8L648.4 185.9L647.2 187.7L648 188.5L645.7 189.2L644.9 190.7L643.8 191.4L641.5 189.2L640.3 186L639.4 183.6L638.5 182.5L637.2 180.3L636.5 177.4L636.1 175.9L633.8 172.7L632.8 168.2L632.1 165.2L632.1 162.4L631.6 160.2L627.9 161.6L626.2 161.3L622.9 158.5L624.1 157.6L623.4 156.7L620.4 154.7L618.6 154.1L617.9 152.5L615.9 150.7L611.3 151.1L607.3 151.2L603.7 151.5L599 150.8L596.3 150.2L593.5 149.9L592.4 147.1L591.2 146.7L589.3 147.1L586.8 148.2L583.7 147.4L581.2 145.6L578.8 145L577.1 142.8L575.3 139.7L573.9 140L572.4 139.3L571.4 140.2L569.9 140.1L570.5 141.1L570.2 141.6L571 143.4L572 145.4L573.2 145.9L573.7 146.7L575.4 147.7L575.5 148.7L575.3 149.5L575.6 150.2L576.3 150.9L576.7 151.7L577 152.2L576.9 150.5L577.5 149.3L578.2 149.1L579 149.8L579 151.2L578.5 152.5L578.9 153.4L579.4 153.3L579.5 154L581.4 153.6L583.5 153.6L585 153.7L586.7 152.1L588.6 150.6L590.2 149.2L590.9 148.4L591.2 148.6L591 149.6L590.7 150L591 151.8L592.1 153.4L593.5 154.3L595.3 154.6L596.8 155L598 156.4L598.6 157.1L599.5 157.4L599.5 157.9L598.6 159.3L598.2 160L597.2 160.7L596.2 162.3L595.1 162.2L594.6 162.8L594.2 163.9L594.5 165.5L594.2 165.8L593.1 165.8L591.5 166.7L591.3 167.8L590.7 168.3L589.2 168.3L588.2 168.9L588.2 169.8L587 170.4L585.6 170.2L583.9 171L582.8 171.1L581 171.8L580.5 172.8L580.4 173.6L577.9 174.6L573.9 175.7L571.7 177.3L570.6 177.5L569.8 177.3L568.4 178.3L566.8 178.7L564.7 178.9L564.1 179L563.5 179.6L562.9 179.8L562.5 180.4L561.2 180.3L560.4 180.6L558.7 180.5L558.1 179.2L558.1 177.9L557.7 177.2L557.2 175.5L556.5 174.5L557 174.4L556.8 173.3L557.1 172.9L556.9 171.9L556.6 170.9L555.9 170.2L555.7 169.2L554.4 168.4L553.1 166.4L552.3 164.5L550.6 162.9L549.5 162.5L547.8 160.3L547.6 158.7L547.7 157.3L546.2 154.7L545.1 153.8L543.7 153.3L542.9 152L543 151.5L542.3 150.3L541.6 149.7L540.6 148L539.1 146.1L537.8 144.5L536.6 144.5L537 143.2L537.1 142.4L537.4 141.5L537.3 141.2L536.6 142.1L536.1 143.9L535.4 145.1L534.8 145.5L534 144.7L532.8 143.7L531.1 140.3L530.8 140.6L531.8 143L533.4 145.4L535.3 149L536.2 150.3L537 151.6L539.2 154.2L538.7 154.6L538.8 156.1L541.7 158.2L542.2 158.7L543 161L542.4 161.4L542.8 163.8L543.7 166.6L544.7 167.1L546 168L547.5 170.7L548.2 172.8L549.5 174L552.9 176.2L554.3 177.5L555.7 178.9L556.5 179.7L557.7 180.4L558.3 181.1L558.2 182.1L556.8 182.6L557.9 183.3L558.7 183.7L559.2 184.6L560.3 185.6L561.5 185.6L563.9 185L566.6 184.8L568.8 184L570.1 183.9L570.9 183.5L572.4 183.4L573.2 183.3L574.3 183L575.6 182.7L576.8 181.9L577.8 181.9L577.8 182.6L577.6 183.9L577.6 185.2L577.1 186L576.4 188.5L575.2 191.1L573.6 194.1L571.5 197.5L569.4 200.2L566.4 203.3L563.9 205.2L560.2 207.5L557.8 209.3L555.1 212.1L554.5 213.4L554 213.9L552.2 214.9L551.6 215.8L550.7 216L550.3 217.6L549.5 218.6L549 220.1L548 220.9L546.9 223.8L547 225.1L548.6 226L548.7 226.6L548 228L548.1 228.7L548 229.8L548.8 231.3L549.9 233.6L550.8 234.1L551.2 235.1L551.1 237.4L551.4 239.5L551.5 243.1L551.9 244.3L551.2 245.9L550.2 247.6L548.6 249L546.3 249.9L543.5 251L540.7 253.5L539.7 254L538 255.6L537 256.2L536.8 257.8L537.9 259.6L538.4 261L538.5 261.7L538.9 261.5L538.8 263.8L538.4 264.9L539 265.3L538.6 266.3L537.6 267.1L535.5 267.9L532.5 269.2L531.4 270L531.7 271L532.3 271.2L532.1 272.4L531.5 274.1L531.2 276L530.5 277.1L528.8 278.3L528.3 278.6L527.3 279.8L526.6 281L525.1 282.7L522.3 285.1L520.5 286.5L518.7 287.5L516 288.4L514.8 288.6L514.5 289.2L512.9 288.9L511.7 289.3L509 288.9L507.5 289.1L506.4 289L503.9 289.9L501.7 290.3L500.2 291.2L499 291.2L498 290.4L497.1 290.4L496.1 289.3L495.9 289.7L495.6 289L495.6 287.7L494.8 286.1L495.6 285.7L495.6 283.9L493.9 281.7L492.7 279.7L492.7 279.7L490.9 276.7L489 274.9L488 273.2L487.5 270.9L486.9 269.3L486 265.7L486 262.9L485.6 261.6L484.7 260.6L483.4 258.7L482.1 255.9L481.5 254.4L479.5 252.2L479.3 250.4L479.1 248.9L479.4 246.9L480.3 244.7L480.4 243.7L481.3 241.6L481.8 240.7L483.3 239.1L484.1 238.1L484.3 236.4L484.2 235L483.5 234.2L482.8 232.8L482.2 231.4L482.3 230.9L483.1 230L482.3 227.7L481.8 226.2L480.6 224.7L480.8 224.2L480.5 223.5L479.8 221.8L477.7 219.3L475.2 216.9L473.5 215L472 212.6L472.1 211.8L472.6 211.1L473.2 209.4L473.7 207.6L473.3 207.3L474.1 204.7L474.5 202.8L473.5 201.3L472.4 200.9L471.9 199.8L471.2 199.5L471.3 198.9L468.7 199.7L467.7 199.6L466.7 200.1L464.7 200.1L463.4 198.6L462.6 196.9L460.8 195.4L458.9 195.4L456.7 195.4L454.7 195.7L452.7 196.2L448.7 197.5L447.3 198.3L445.1 199L442.9 198.3L441.7 198.4L440 197.9L438.4 197.9L435.4 198.3L433.7 199L431.2 199.9L430.7 199.8L430.1 199.8L427.5 198.7L425.2 196.9L423.1 195.7L421.4 194.2L420.7 194L418.9 193.1L417.6 191.8L417.2 191L416.9 189.2L415.8 187.8L414.8 186.9L414.2 186.6L413.6 186.2L413.3 185.1L412.9 184.6L412.2 184.2L410.8 183.3L409.8 183.1L409.2 182.5L409.2 182.1L408.5 181.6L408.3 181.1L407.9 179.3L408.2 178.3L407.2 176.5L405.9 175.6L407 175.2L408.2 173.5L408.8 172.4L408.6 171.1L409.3 169.9L409.6 167.7L409.4 165.4L409.1 164.3L409.3 163.1L408.7 162L407.3 161L407.4 160L407.6 158.9L408.5 158.3L409.3 157.1L409.2 156.3L410 154.6L411.4 153.2L412.3 152.8L412.9 151.4L413 150.2L413.9 148.7L415.6 147.9L417.2 145.5L418.5 144.6L420.8 144.3L422.7 142.7L424 142.1L426.1 140.2L425.5 137.3L426.4 135.2L426.7 134L428.4 132.4L430.9 131.4L432.7 130.4L434.4 128L435.2 126.6L437 126.6L438.5 127.6L440.9 127.4L443.5 127.9L444.6 127.9L447 126.7L449.7 126.3L451.3 125.3L453.7 124.6L457.9 124.2L462 124L463.3 124.3L465.7 123.4L468.3 123.4L469.3 123.9L471.1 123.8L473.8 122.8L475.5 123.1L475.5 124.3L477.6 123.5L477.8 123.9L476.5 125L476.5 126.1L477.3 126.7L477 128.7L475.4 129.9L475.8 131.2L477.1 131.2L477.8 132.3L478.7 132.7L481.7 133.5L482.7 133.3L484.8 133.7L488.1 134.7L489.3 136.8L491.5 137.2L495.1 138.2L497.7 139.4L498.9 138.8L500.1 137.7L499.6 135.9L500.3 134.8L502.1 133.7L503.9 133.4L507.2 133.8L508.1 134.9L509 134.9L509.8 135.3L512.3 135.6L512.9 136.3L516.2 136.3L518.6 136.9L521.1 137.6L522.3 138L524.2 137.2L525.2 136.6L527.4 136.4L529.2 136.7L529.9 137.8L530.5 137.1L532.5 137.6L534.4 137.7L535.7 137.2L536.4 136.4L536.2 136.3L536.9 135.2L537.4 133.4L537.7 132.8L537.8 132.8L538.7 130.9L539.9 129.2L540 129.2L539.8 127.4L540.4 126.4L539.5 125.4L540.4 124.5L538.9 124.7L536.8 124.1L535.1 125.5L531.3 125.7L529.2 124.5L526.6 124.4L526 125.4L524.3 125.7L521.8 124.4L519.1 124.5L517.6 122.1L515.8 120.8L517 119L515.4 117.9L518.2 115.7L522.1 115.6L523.1 113.8L527.9 114.1L530.9 112.6L533.8 112L537.9 111.9L542.3 113.6L545.9 114.5L548.8 114.1L550.9 114.3L553.9 113.1L554.3 112.1L553.6 110.5L552.2 109.6L550.8 109.4L549.9 108.7L546.7 106.7L543.8 105.8L541.7 104.4L543.5 104.1L545.6 102.1L544.2 101.2L547.9 100.2L547.8 99.7L545.6 100.1L543.6 100.3L541.9 101L539.6 101.2L537.4 102L537.6 103.5L538.8 104L541.3 103.9L540.8 104.7L538.1 105.1L534.7 106.5L533.3 106L533.9 104.9L531.1 104.2L531.6 103.8L534 103L533.2 102.5L529.4 101.9L529.2 101L526.9 101.3L525.9 102.6L524 104.3L524.1 104.9L522.9 105.4L522.1 105.2L521.4 108L520.1 109L519.2 110.7L520 112L520.3 112.9L522.5 113.6L522 114.2L519 114.3L518 115.1L515.9 116.3L515.1 115.2L515.1 114.7L513.6 114.7L512.3 114.5L509.3 115.1L511 116.4L509.8 116.8L508.4 116.8L507 115.6L506.6 116.1L507.1 117.5L508.4 118.6L507.4 119.1L508.8 120.1L510.1 120.8L510.1 122.1L507.8 121.5L508.5 122.7L506.9 123L507.9 125L506.2 125L504.2 124L503.2 122.2L502.8 120.6L501.8 119.5L500.5 118.2L500.4 117.5L500 117.4L499.9 116.9L498.5 116.1L498.3 115L498.5 113.4L498.9 112.7L498.4 112.3L497.9 112.1L497.2 111.3L496.1 110.9L493.8 110L492.3 109.2L490 108.5L487.9 106.8L488.4 106.6L487.3 105.6L487.3 104.8L485.6 104.5L484.9 105.5L484.1 104.7L484.2 103.9L484.3 103.8L484.8 103.6L482.9 103.3L480.8 104.1L481 105.3L480.7 105.9L481.5 107.1L483.8 108.3L485.1 110.2L487.9 112.1L489.8 112.1L490.4 112.6L489.7 113.1L492 113.9L493.8 114.6L495.9 115.8L496.2 116.3L495.7 117.1L494.3 116L492.2 115.6L491.1 117.1L492.9 118L492.6 119.2L491.6 119.4L490.3 121.4L489.2 121.5L489.2 120.8L489.7 119.6L490.3 119.1L489.3 117.7L488.5 116.6L487.5 116.3L486.8 115.3L485.2 114.8L484.1 113.9L482.2 113.7L480.3 112.7L478 111.2L476.3 109.8L475.5 107.5L474.3 107.2L472.2 106.5L471.1 106.8L469.6 107.9L468.6 108L466.3 109.4L461.4 108.7L457.8 109.5L457.5 110.9L457.6 112.3L455.2 113.8L452 114.3L451.8 115.1L450.3 116.4L449.3 118.3L450.3 119.6L448.8 120.7L448.3 122.2L446.4 122.6L444.6 124.4L441.5 124.5L439.1 124.4L437.5 125.2L436.6 126.1L435.3 125.9L434.4 125.1L433.7 123.8L431.4 123.4L430.4 124L429 123.7L427.8 124L428.1 122.1L427.9 120.7L426.8 120.5L426.2 119.6L426.4 118.1L427.4 117.2L427.6 116.3L428.1 114.9L428 113.9L427.5 113.1L427.4 112.3L427.5 110.6L426.5 109.6L430.1 107.9L433.1 108.3L436.5 108.3L439.1 108.7L441.2 108.6L445.2 108.7L446.5 107.3L447 102.6L444.4 100.2L442.6 99L438.8 98.1L438.5 96.4L441.8 95.9L446 96.5L445.2 93.9L447.5 94.9L453.3 93L454.1 91.1L456.3 90.7L458.3 90.2L459.6 89.6L461.8 86.1L465.2 85.1L467.3 85.2L467.8 84.7L469.8 84.6L470.3 85.1L472 84L471.4 83.1L471.3 81.8L470.3 80.5L470.2 78.1L470.6 77.4L471.4 76.7L473.6 76.6L474.4 76L476.5 75.3L476.4 76.5L475.6 77.3L475.9 77.9L477.3 78.3L476.7 79.1L475.9 78.9L474.1 80.6L474.8 81.7L474.8 82.6L477.4 83.2L477.3 84L479.9 83.5L481.3 82.9L484.1 83.8L485.3 84.6L487 83.9L490.9 82.8L494.1 82L496.6 82.4L496.7 83L499.2 83L499.7 82L503.2 81.2L502.6 79.3L502.7 77.5L504 76L506.3 75.2L508.3 77L510.3 76.9L510.8 75.1L511.1 73.8L510.2 74.1L508.6 73.2L508.3 71.9L511.5 71.2L514.7 70.9L517.4 71.3L520 71.2L522.8 69.9L520.2 68.8L515.6 69L511.2 69.9L507.2 70.4L505.7 69.1L503.3 68.3L503.9 66L502.6 63.9L503.8 62.6L506.1 61.1L511.8 58.6L513.5 58.1L513.2 57.1L509.8 56L505.5 56.6L503 58.3L503.4 59.7L499.4 61.6L494.6 63.6L492.8 66.9L494.6 68.5L497 69.8L494.7 72.4L492.1 73L491.1 76.9L489.7 79.1L486.7 78.9L485.3 80.7L482.4 80.8L481.6 78.6L479.5 76L477.6 72.7L475.9 71.2L471 73.9L467.6 74.5L464.2 73.3L463.3 70.8L462.5 65.4L464.8 63.9L471.4 61.9L476.3 59.5L480.9 56.3L486.9 51.8L491.1 50L498 47.1L503.4 46.1L507.6 46.2L511.4 44.3L515.9 44.4L520.4 43.9L528.2 45.6L525 46.2L527.8 47.7L530.3 46.9L534.4 48.3L541.3 48.9L550.7 51.5L552.6 52.6L552.8 54.2L550 55.4L546 56L534.8 54.2L533 54.5L537 56.2L537.4 59.7L540.6 60.4L542.5 61L542.9 59.9L541.3 58.8L542.9 58L549 59.5L551.1 58.9L549.4 57.2L555.2 54.9L557.5 55L559.9 55.8L561.3 54.2L559.2 52.8L560.5 51.4L558.6 50L565.6 50.7L567.1 52.1L563.9 52.3L563.9 53.6L565.9 54.4L569.7 53.9L570.3 52.4L575.6 51.3L584.3 49.3L586.2 49.4L583.7 50.9L586.8 51.1L588.6 50.3L593.3 50.2L597 49.3L599.9 50.7L602.7 49.1L600.1 47.8L601.4 47L608.8 47.7L612.2 48.5L621.3 51.1L623 49.9L620.4 48.7L620.3 48.2L617.3 47.9L618.1 46.8L616.8 45L616.7 44.3L621.4 42.2L623 40L624.9 39.6L631.5 40.2L632 41.5L629.6 43.4L631.2 44.1L632 45.8L631.4 49L634.2 50.4L633.1 51.9L628.2 55.3L631.1 55.6L632.1 54.8L634.8 54.2L635.5 53L637.6 51.9L636.2 50.6L637.3 49L634.6 48.8L634 47.5L636 45.2L632.8 43.3L637.2 41.7L636.6 40.1L637.9 40L639.2 41.3L638.2 43.6L640.9 44L639.8 42.3L643.9 41.4L649.1 41.3L653.8 42.6L651.5 40.6L651.3 38.2L655.6 37.7L661.6 37.8L667.1 37.5L665 36.3L667.9 34.7L670.8 34.7L675.7 33.5L682.3 33.2L683.1 32.6L689.7 32.3L691.7 32.9L697.3 31.6L701.9 31.7L702.6 30.7L705 29.7L710.9 28.7L715.2 29.5L711.8 30L717.4 30.4ZM572.8 113.7L574 115.3L575.2 115.4L576 116.1L573.9 116.3L573.5 118.1L573.1 118.9L572.1 119.4L572.2 120.6L573 122.3L575.4 122.8L577.1 124L580.7 124.4L584.6 123.7L584.8 123.2L584.3 121.6L584.7 119.1L582.8 118.3L583.4 116.7L581.7 116.6L582.3 114.6L584.6 115.2L586.8 114.4L585 113L584.3 111.7L582.3 112.3L582 114L581.3 112.5L581.1 111.9L581.7 111L581.3 110.2L578.4 109.4L577.2 107.3L575.8 106.7L575.8 105.9L578.2 106.1L578.3 104.4L580.4 104L582.6 104.4L583.1 102.1L582.6 100.7L580.1 100.8L578 100.2L575.1 101.2L572.8 101.7L571.6 103.1L569.2 103.5L566.7 105.9L569 108.1L568.7 109.7L571.5 112.4L572.8 113.7Z"/>
    <path d="M215.4 29.1L214.3 29.2L209.6 29L208.9 28.4L213.9 28.4L215.7 28.9L215.4 29.1Z"/>
    <path d="M174.5 28.7L169.9 29.4L166.2 28.6L168.2 27.9L171.8 27.6L175.4 28L174.5 28.7Z"/>
    <path d="M511.8 28.3L506.2 29.3L501.8 28.8L503.5 28.2L502 27.4L507.2 26.9L508.2 27.8L511.8 28.3Z"/>
    <path d="M175.8 26.6L172.8 27.1L168.6 27L168.7 26.7L171.2 26L172.6 26.1L175.8 26.6Z"/>
    <path d="M210.4 27.9L206.7 28.3L204.7 27.8L203.6 26.9L203.4 26L206.7 26.1L208.1 26.2L211.1 27L210.4 27.9Z"/>
    <path d="M199.8 27.2L200.8 28.2L196.7 28L192.6 27.2L187.1 27.1L189.5 26.4L186.5 25.9L186.3 25L191.2 25.3L197.9 26.1L199.8 27.2Z"/>
    <path d="M712.7 27.3L698.6 28.2L703.2 25.1L705.2 24.9L707.1 25L713.4 26.3L712.7 27.3Z"/>
    <path d="M495.6 24L503.9 25.8L497.6 26.7L496.2 28.4L494 28.8L492.8 30.8L489.8 30.9L484.4 29.4L486.7 28.6L482.9 27.9L478.1 26L476.1 24.1L482.9 23.3L484.3 24.1L487.9 24.1L488.8 23.3L492.5 23.2L495.6 24Z"/>
    <path d="M513.6 22.4L518.5 23.2L514.8 24.5L507.6 24.7L500.2 24.3L499.7 23.7L496.2 23.7L493.4 22.6L501.1 21.9L504.8 22.5L507.3 21.8L513.6 22.4Z"/>
    <path d="M577.8 22.1L574.5 22.4L572.2 22.5L571.9 22.9L569 23.3L566.3 22.8L567.7 22L562.1 22L567 21.5L570.8 21.5L571.3 22.1L572.7 21.6L575.1 21.2L578.8 21.7L577.8 22.1Z"/>
    <path d="M699.8 25.9L694.4 26.2L687.4 25.6L683.3 24.7L681.4 23L678 22.5L684.4 20.9L689.9 20.4L694.7 21.6L700.5 23.8L699.8 25.9Z"/>
    <path d="M232.4 24.1L235.5 24.9L232 25.6L227.4 27.3L223 27.5L217.8 27.2L215.1 26.2L215.2 25.4L217.1 24.8L212.6 24.8L209.8 24L208.2 23L210 21.9L211.7 21.2L214.3 21.1L213.2 20.5L219 20.4L222.2 21.6L226.4 22.1L230.5 22.6L232.4 24.1Z"/>
    <path d="M278.8 16.1L285.4 16.3L290.8 16.6L295.4 17.2L295.3 17.8L289.2 18.8L283.1 19.3L280.9 19.8L286.3 19.8L280.4 21.2L276.3 21.9L272 23.8L266.9 24.2L265.3 24.7L257.7 24.9L261.2 25.2L259.4 25.6L261.5 26.8L259.1 27.6L255.3 28.2L254.1 29.1L250.6 29.8L251 30.4L255.2 30.3L255.3 30.9L248.6 32.3L242.1 31.6L234.7 32L231 31.7L226.3 31.6L226 30.4L230.6 29.9L229.3 28.2L230.9 28.1L237.6 29.1L234.1 27.6L230.1 27.1L232.1 26.2L236.6 25.7L237.3 24.9L233.7 23.9L232.7 22.7L239.5 22.8L241.5 23.1L245.4 22.2L239.8 22L231 22.1L226.6 21.3L224.5 20.4L221.6 19.7L221 18.9L224.8 18.5L227.7 18.4L232.6 18L236.3 17.1L239.3 17.3L242 17.9L243.9 16.7L247.3 16.3L251.7 16L259.4 15.9L260.7 16.2L267.9 15.8L273.3 15.9L278.8 16.1Z"/>
    <path d="M382.2 15.1L397.9 17L393.3 17.9L383.7 18L370.3 18.2L371.5 18.6L380.4 18.4L387.9 19.2L392.7 18.4L394.8 19.3L392.1 20.6L398.4 19.8L410.6 18.9L418.1 19.3L419.5 20.3L409.3 22L407.9 22.5L399.9 22.9L405.7 23L402.8 24.7L400.7 26.2L400.8 28.8L403.8 30.4L399.9 30.5L395.8 31.2L400.4 32.4L401 34.4L398.3 34.6L401.6 36.6L396 36.8L398.9 37.8L398.1 38.6L394.6 38.9L391.1 39L394.2 40.5L394.3 41.6L389.3 40.6L388 41.2L391.4 41.8L394.7 43.2L395.6 45.1L391.2 45.6L389.2 44.7L386.1 43.3L387 44.9L384.1 46.1L390.7 46.2L394.1 46.4L387.4 48.4L380.6 50.2L373.3 51L370.6 51.1L368 52L364.5 54.4L359.1 56L357.4 56.1L354.1 56.7L350.5 57.3L348.3 58.7L348.3 60.3L347 61.9L343 63.7L344 65.6L342.8 67.5L341.6 69.8L338 69.9L334.3 68L329.3 68L326.9 66.7L325.2 64.4L320.9 61.5L319.6 60L319.3 57.9L315.8 55.8L316.7 54L315.1 53.2L317.5 50.5L321.3 49.6L322.3 48.7L322.8 46.8L320 47.7L318.6 48L316.4 48.3L313.3 47.6L313.1 46L314.1 44.8L316.4 44.7L321.5 45.3L317.2 43.9L315 43.1L312.5 43.4L310.4 42.8L313.2 40.6L311.7 39.8L309.7 38.2L306.7 35.7L303.5 34.8L303.5 33.8L296.8 32.4L291.5 32.3L284.8 32.4L278.7 32.5L275.8 31.8L271.5 30.3L278.1 29.6L283.1 29.5L272.4 28.8L266.8 27.9L267.1 27L276.6 25.9L285.7 24.7L286.7 23.9L279.9 23.1L282.1 22.1L290.8 20.5L294.4 20.3L293.4 19.2L299.3 18.6L307 18.2L314.7 18.2L317.4 18.9L324 17.6L330 18.5L333.5 18.7L338.7 19.5L332.7 18.2L333.1 17.2L341.5 15.8L350.3 15.9L353.4 15.1L362.3 14.8L382.2 15.1Z"/>
  </g>
</svg>
